<?xml version="1.0" encoding="UTF-8" standalone="no"?>
<!-- Created with Inkscape (http://www.inkscape.org/) -->

<svg
   xmlns:dc="http://purl.org/dc/elements/1.1/"
   xmlns:cc="http://creativecommons.org/ns#"
   xmlns:rdf="http://www.w3.org/1999/02/22-rdf-syntax-ns#"
   xmlns:svg="http://www.w3.org/2000/svg"
   xmlns="http://www.w3.org/2000/svg"
   xmlns:sodipodi="http://sodipodi.sourceforge.net/DTD/sodipodi-0.dtd"
   xmlns:inkscape="http://www.inkscape.org/namespaces/inkscape"
   width="63.5mm"
   height="96mm"
   viewBox="0 0 225 340.15748"
   id="svg2"
   version="1.1"
   inkscape:version="0.91 r13725"
   sodipodi:docname="Office-Sticker.svg">
  <defs
     id="defs4" />
  <sodipodi:namedview
     id="base"
     pagecolor="#ffffff"
     bordercolor="#666666"
     borderopacity="1.0"
     inkscape:pageopacity="0.0"
     inkscape:pageshadow="2"
     inkscape:zoom="1.4"
     inkscape:cx="-89.436972"
     inkscape:cy="208.72671"
     inkscape:document-units="mm"
     inkscape:current-layer="layer1"
     showgrid="false"
     inkscape:window-width="1920"
     inkscape:window-height="1048"
     inkscape:window-x="1360"
     inkscape:window-y="0"
     inkscape:window-maximized="1" />
  <metadata
     id="metadata7">
    <rdf:RDF>
      <cc:Work
         rdf:about="">
        <dc:format>image/svg+xml</dc:format>
        <dc:type
           rdf:resource="http://purl.org/dc/dcmitype/StillImage" />
        <dc:title></dc:title>
      </cc:Work>
    </rdf:RDF>
  </metadata>
  <g
     inkscape:label="Ebene 1"
     inkscape:groupmode="layer"
     id="layer1"
     transform="translate(0,-712.20473)">
    <g
       id="g4149"
       transform="translate(-10.440941,0)">
      <g
         id="g4164"
         inkscape:label="ink_ext_XXXXXX"
         transform="matrix(0.31552365,0,0,-0.31552365,52.861085,877.39102)">
        <g
           id="g4166"
           transform="scale(0.1,0.1)">
          <path
             d="m 22.7656,1997.34 521.7544,96.98 c 12.839,3.06 26.726,14.92 30.722,26.73 l 160.36,373.31 c 5.925,11.82 4.964,29.58 -3.036,40.47 l -303.882,443.56 c -6.852,10.86 -5.891,26.72 3.996,35.66 l 379.078,380.16 c 9.887,8.81 25.754,10.92 36.609,2.89 l 450.423,-308.8 c 10.95,-8.05 29.76,-8.99 40.7,-3.06 l 362.24,147.55 c 12,4.92 24.74,17.91 26.86,30.67 l 99.83,540.52 c 3.08,13 15.87,22.73 28.84,22.73 l 536.48,0 c 12.96,0 25.76,-9.73 27.82,-22.73 l 100.97,-540.52 c 1.9,-12.76 13.81,-25.75 26.73,-30.67 l 362.24,-147.55 c 10.9,-5.93 29.79,-4.99 39.69,3.06 l 451.39,308.8 c 10.86,8.03 26.72,5.92 36.61,-2.89 l 379.2,-380.16 c 9.76,-8.94 10.86,-24.8 3.87,-35.66 l -304.79,-443.56 c -7.08,-10.89 -7.97,-28.65 -2.12,-40.47 l 160.53,-373.31 c 3.78,-11.81 17.76,-23.67 30.5,-26.73 l 521.76,-96.98 c 12.92,-2.01 23.77,-14.86 23.77,-27.82 l 0.06,-537.44 c 0,-12.97 -10.91,-24.85 -23.83,-27.7 l -508.75,-95.05 c -13.01,-2.1 -26.76,-13.86 -30.72,-26.72 L 3530.21,885.711 c -5.89,-12.063 -4.92,-29.832 3.08,-40.699 L 3822.26,423.23 c 6.99,-9.941 5.89,-26.73 -3.87,-35.691 L 3439.19,7.53906 c -9.89,-8.91797 -25.75,-9.91797 -36.61,-3.02734 L 2988.8,288.699 c -10.89,6.871 -28.82,7.781 -39.67,0.942 L 2766.05,192.68 c 0,0 -152.45,-107.0394 -484.15,-122.8597 0,0 -21.8,524.7817 -21.8,566.2307 34.76,11.988 592.03,205.929 592.03,791.069 0,584.02 -696,1274.09 -723.69,1274.09 -28.61,0 -735.51,-691.98 -735.51,-1274.09 0,-582.108 558.37,-779.081 591.95,-791.069 1,-39.52 -17.71,-564.2112 -17.71,-564.2112 -162.38,10.879 -288.2,45.4412 -482.09,120.8402 -72.37,38.5 -183.25,96.961 -183.25,96.961 -10.85,6.839 -28.78,5.929 -39.64,-0.942 L 848.367,4.51172 C 837.512,-2.37891 821.645,-1.37891 811.758,7.53906 L 432.68,387.539 c -9.887,8.961 -10.848,25.75 -3.996,35.691 l 289.168,421.782 c 7.855,10.867 8.781,29.617 2.851,40.699 L 562.32,1282.61 c -4.039,12.86 -17.8,24.62 -30.715,26.72 L 22.7656,1404.38 C 9.96875,1406.3 0,1419.11 0,1432.08 l 0,537.44 c 0,12.96 9.96875,25.81 22.7656,27.82"
             style="fill:#66c430;fill-opacity:1;fill-rule:nonzero;stroke:none"
             id="path4168"
             inkscape:connector-curvature="0" />
          <path
             d="m 3515.35,2494.36 c -5.85,11.82 -4.96,29.58 2.12,40.47 l 304.79,443.56 c 6.99,10.86 5.89,26.72 -3.87,35.66 l -379.2,380.16 c -9.89,8.81 -25.75,10.92 -36.61,2.89 l -451.39,-308.8 c -9.9,-8.05 -28.79,-8.99 -39.69,-3.06 l -362.24,147.55 c -12.92,4.92 -24.83,17.91 -26.73,30.67 l -100.97,540.52 c -2.06,13 -14.86,22.73 -27.82,22.73 l -536.48,0 c -12.97,0 -25.76,-9.73 -28.84,-22.73 l -99.83,-540.52 c -2.12,-12.76 -14.86,-25.75 -26.86,-30.67 l -362.24,-147.55 c -10.94,-5.93 -29.75,-4.99 -40.7,3.06 l -450.423,308.8 c -10.855,8.03 -26.722,5.92 -36.609,-2.89 L 432.68,3014.05 c -9.887,-8.94 -10.848,-24.8 -3.996,-35.66 l 303.882,-443.56 c 8,-10.89 8.961,-28.65 3.036,-40.47 l -160.36,-373.31 c -3.996,-11.81 -17.883,-23.67 -30.722,-26.73 L 22.7656,1997.34 C 9.96875,1995.33 0,1982.48 0,1969.52 L 0,1618.4 c 522.066,34.94 1016.1,93.81 1470.1,172.83 183.95,472.11 635.58,909.98 658.34,909.98 17.62,0 306.29,-280.11 513.64,-634.33 349.97,108.44 653.36,231.83 899.28,366.99 l -26.01,60.49"
             style="fill:#73c82c;fill-opacity:1;fill-rule:nonzero;stroke:none"
             id="path4170"
             inkscape:connector-curvature="0" />
        </g>
      </g>
      <g
         id="g4184"
         inkscape:label="ink_ext_XXXXXX"
         transform="matrix(1.6973111,0,0,-1.6973111,58.860915,901.0492)">
        <g
           id="g4186"
           transform="scale(0.1,0.1)">
          <path
             d="m 702.328,933.563 8.535,9.261 c 0.91,-3.379 2.5,-6.519 -0.515,-7.597 -3.332,-0.059 -5.879,-0.68 -8.02,-1.664"
             style="fill:#e9ed2c;fill-opacity:1;fill-rule:nonzero;stroke:none"
             id="path4188"
             inkscape:connector-curvature="0" />
          <path
             d="m 692.633,921.129 0.183,2.289 1.543,1.633 -1.726,-3.922"
             style="fill:#e9ed2c;fill-opacity:1;fill-rule:nonzero;stroke:none"
             id="path4190"
             inkscape:connector-curvature="0" />
          <path
             d="m 683.539,905.684 c 1.328,4.464 3.613,7.336 6.418,9.132 -1.504,-3.371 -3.398,-6.597 -6.418,-9.132"
             style="fill:#e9ed2c;fill-opacity:1;fill-rule:nonzero;stroke:none"
             id="path4192"
             inkscape:connector-curvature="0" />
          <path
             d="m 689.957,914.816 2.637,6.219 c -0.141,-2.719 2.023,-3.621 4.551,-3.918 -2.579,-0.262 -5.032,-1.004 -7.188,-2.301 m 2.637,6.219 c 0,0.004 0,0.008 0,0.012 l 0.039,0.082 -0.039,-0.094"
             style="fill:#e9ed2c;fill-opacity:1;fill-rule:nonzero;stroke:none"
             id="path4194"
             inkscape:connector-curvature="0" />
          <path
             d="m 703.773,916.988 -2.343,0.047 c 0.41,0.012 0.797,0.02 1.152,0.02 0.461,0 0.867,-0.016 1.191,-0.067 m -4.316,0.008 c -0.769,0 -1.559,0.027 -2.312,0.121 l 4.285,-0.082 c -0.106,-0.004 -0.211,-0.008 -0.321,-0.012 -0.523,-0.015 -1.082,-0.027 -1.652,-0.027"
             style="fill:#e9ed2c;fill-opacity:1;fill-rule:nonzero;stroke:none"
             id="path4196"
             inkscape:connector-curvature="0" />
          <path
             d="m 697.199,813.922 c -4.969,0 -3.988,24.332 -1.344,33.207 0.145,5.406 16.875,0.871 17.02,6.269 5.852,7.497 6.145,18.368 9.27,28.899 0.039,1.254 0.652,1.711 1.574,1.711 1.269,0 3.129,-0.871 4.875,-1.746 1.746,-0.875 3.375,-1.75 4.199,-1.75 0.336,0 0.535,0.148 0.551,0.5 6.191,12.73 -1.387,32.593 7.316,36.965 5.918,3.851 11.473,7.152 16.961,10.312 -3.633,-2.902 -7.332,-5.684 -9.871,-9.84 -6.797,-16.676 -11.926,-33.246 -17.687,-50.129 -10.672,-17.914 -16.875,-32.132 -29.395,-51.543 -1.387,-1.992 -2.531,-2.855 -3.469,-2.855"
             style="fill:#e9ed2c;fill-opacity:1;fill-rule:nonzero;stroke:none"
             id="path4198"
             inkscape:connector-curvature="0" />
          <path
             d="m 763.336,977.695 -8.398,1.075 c 3.359,10.48 6.738,21.015 20.867,21.9 0,0 0.304,5.45 0.429,8.17 0.582,0.2 1.157,0.29 1.727,0.29 2.953,0 5.773,-2.38 8.664,-4.02 -5.918,-9.411 -13.617,-16.989 -26.812,-20.79 0.5,0.09 0.96,0.133 1.39,0.133 3.41,0 4.563,-2.769 2.133,-6.758"
             style="fill:#e9ed2c;fill-opacity:1;fill-rule:nonzero;stroke:none"
             id="path4200"
             inkscape:connector-curvature="0" />
          <path
             d="m 787.738,1004.5 -1.113,0.61 3.379,5.99 0.422,-0.04 -2.688,-6.56"
             style="fill:#e9ed2c;fill-opacity:1;fill-rule:nonzero;stroke:none"
             id="path4202"
             inkscape:connector-curvature="0" />
          <path
             d="M 74.8984,0 C 71.6133,0 68.0625,0.148438 64.2148,0.46875 60.125,0.578125 -4.96875,13.9414 0.304688,65.7539 17.9648,95.5391 48.6484,155.168 78.9141,178.215 161.137,235.91 191.602,316.922 258.199,383.504 c 33.024,33.539 65.059,68.769 97,106.391 57.481,70.406 103.996,136.328 163.106,201.277 l 27.082,29.723 0,0 13.613,14.96 2.168,0.59 -1.594,0.055 3.235,3.527 c 0.586,-0.078 1.144,-0.117 1.671,-0.117 6.618,0 8.766,5.797 10.934,11.61 l 2.414,5.168 17.664,19.972 -0.117,-2.289 1.594,3.957 7.617,8.84 c 2.078,1.031 4.598,1.742 7.852,1.871 2.968,1.191 1.308,4.277 0.339,7.613 17.59,20.141 35.012,41.196 52.473,64.395 0,0 14.785,5.492 23.648,5.492 0.512,0 1.008,-0.019 1.477,-0.059 l -3.289,-6.031 0,0 1.16,-0.586 C 681.012,840.598 674,819.336 669.418,799.813 l 0,0 -1.785,-8.145 c -2.004,-3.445 -4.797,-5.965 -7.727,-8.418 -5.379,-3.297 -10.886,-6.707 -16.738,-10.676 -8.574,-4.578 -0.262,-24.429 -6.035,-37.41 -0.004,-0.363 -0.207,-0.516 -0.559,-0.516 -0.824,0 -2.453,0.821 -4.195,1.645 -1.746,0.82 -3.606,1.641 -4.887,1.641 -0.969,0 -1.609,-0.465 -1.629,-1.75 -2.879,-10.579 -2.957,-21.407 -8.621,-28.961 -0.039,-5.426 -16.906,-1.239 -16.953,-6.657 -2.437,-8.867 -2.93,-33.082 2.004,-33.082 0.945,0 2.09,0.887 3.453,2.938 12.102,19.613 18.078,33.953 28.399,52 C 628.082,703.863 620.512,685.48 607.152,667.586 598.637,656.219 581.664,645.578 573.18,630.09 564.938,606.355 561,578.281 544.398,555.262 477.602,471.203 442.172,380.344 369.086,306.855 357.035,291.227 349.18,275.387 336.918,263.816 287.793,217.355 282.582,129.23 206.855,115.309 163.777,105.934 140.301,56.4141 156.684,56.4141 c 1.843,0 4.191,0.6289 7.07,2.0078 C 115.617,29.9609 121.031,0 74.8984,0 M 536.664,695.773 c -9.422,-0.519 -18.34,-2.531 -18.398,-12.73 9.621,1.105 16.64,6.117 18.398,12.73 m 0,0 0,0 c 5.637,0.317 11.418,0.102 15.645,0.786 0.175,-0.016 0.339,-0.024 0.492,-0.024 -0.153,0 -0.321,0.008 -0.492,0.024 -4.227,-0.684 -10.008,-0.469 -15.645,-0.786 m 16.141,0.762 0,0 c 0,0 0,0 0.004,0 -0.004,0 -0.004,0 -0.004,0 m -17.379,9.516 c 1.16,-2.356 1.707,-4.664 1.703,-6.867 0.004,2.203 -0.543,4.511 -1.703,6.867 l 0,0 m 19.269,-2.918 c 0,-0.012 0,-0.02 0.004,-0.028 -0.004,0.008 -0.004,0.016 -0.004,0.028 m -0.023,0.101 c 0.008,-0.031 0.016,-0.062 0.019,-0.093 -0.003,0.031 -0.011,0.062 -0.019,0.093 m -0.34,1.993 c 0.082,-0.641 0.207,-1.305 0.336,-1.969 -0.129,0.664 -0.254,1.328 -0.336,1.969 m 6.238,4.222 c 0.102,-0.027 0.203,-0.054 0.305,-0.082 -0.102,0.028 -0.203,0.055 -0.305,0.082 m -0.246,0.063 c 0.012,-0.004 0.024,-0.004 0.035,-0.008 -0.011,0.004 -0.023,0.004 -0.035,0.008 m -0.078,0.019 c 0.027,-0.008 0.055,-0.011 0.078,-0.019 -0.023,0.008 -0.051,0.011 -0.078,0.019 m -0.18,0.043 c 0.02,-0.004 0.039,-0.008 0.063,-0.015 -0.024,0.007 -0.043,0.011 -0.063,0.015 m -0.472,0.106 c 0.008,0 0.015,-0.004 0.019,-0.004 -0.004,0 -0.011,0.004 -0.019,0.004 m 35.301,63.394 -14.997,-16.629 c 0.61,-0.082 1.184,-0.121 1.727,-0.121 4.781,0 7.215,3.063 9.008,6.977 0.926,1.472 1.68,3.039 2.351,4.621 -0.238,-0.156 -0.468,-0.32 -0.699,-0.492 0.067,0.179 0.133,0.359 0.199,0.539 l 2.387,5.047 -1.887,-5.094 c 2.079,1.422 4.473,2.172 7.032,2.527 0.48,-0.039 0.972,-0.054 1.464,-0.054 0.805,0 1.614,0.043 2.36,0.082 0.137,0.007 0.273,0.015 0.406,0.023 l -4.23,-0.051 c -2.512,0.223 -4.649,1.035 -4.641,3.778 l 0,0.144 -0.48,-1.297 m 71.886,40.285 c -2.898,-2.382 -8.593,-4.496 -11.484,-6.886 l 0,0 c 2.891,2.39 8.586,4.504 11.484,6.886 m 11.696,50.887 c -0.614,0 -1.231,-0.101 -1.852,-0.328 -0.078,-2.707 -0.242,-8.145 -0.242,-8.145 -14.121,-1.199 -17.238,-11.761 -20.371,-22.296 l 8.445,-0.911 c 2.309,4.008 1.137,6.704 -2.176,6.704 -0.496,0 -1.035,-0.059 -1.621,-0.184 13.199,4.109 20.727,11.84 26.426,21.363 -2.848,1.539 -5.695,3.797 -8.609,3.797 M 163.754,58.4219 c 1.648,0.9726 3.359,1.9492 5.137,2.9179 -1.868,-1.207 -3.582,-2.1718 -5.137,-2.9179 M 658.98,838.59 c 0.594,0.219 1.153,0.383 1.68,0.496 -0.551,-0.172 -1.109,-0.336 -1.68,-0.496"
             style="fill:#e9ed2c;fill-opacity:1;fill-rule:nonzero;stroke:none"
             id="path4204"
             inkscape:connector-curvature="0" />
          <path
             d="m 581.625,756.324 c -0.543,0 -1.117,0.039 -1.727,0.121 l 14.997,16.629 0.011,0.012 -0.035,-0.07 -2.387,-5.047 c -0.066,-0.18 -0.132,-0.36 -0.199,-0.539 -0.519,-1.414 -1.051,-2.821 -1.652,-4.129 -1.793,-3.914 -4.227,-6.977 -9.008,-6.977"
             style="fill:#e9ed2c;fill-opacity:1;fill-rule:nonzero;stroke:none"
             id="path4206"
             inkscape:connector-curvature="0" />
        </g>
      </g>
    </g>
  </g>
</svg>
